<svg version="1.1" id="Capa_1" xmlns="http://www.w3.org/2000/svg" xmlns:xlink="http://www.w3.org/1999/xlink" x="0px" y="0px"
	 viewBox="0 0 235 235" style="enable-background:new 0 0 230 230;" xml:space="preserve">
<path fill="#acb5bf" stroke="#acb5bf" d="M115,230c63.411,0,115-51.589,115-115S178.411,0,115,0S0,51.589,0,115S51.589,230,115,230z M190,115
	c0,41.355-33.645,75-75,75c-13.428,0-26.031-3.564-36.945-9.77L180.229,78.055C186.436,88.969,190,101.572,190,115z M115,40
	c13.428,0,26.031,3.564,36.945,9.771L49.771,151.945C43.564,141.031,40,128.428,40,115C40,73.645,73.645,40,115,40z"/>
</svg>
