<svg xmlns="http://www.w3.org/2000/svg" viewBox="0 0 19 18"><path d="M16.5 0h-14C1.1 0 0 1.1 0 2.5v10C0 13.9 1.1 15 2.5 15H4v2.5c0 .2.1.4.3.4 0 .1.1.1.2.1s.2 0 .3-.1L8.7 15h7.8c1.4 0 2.5-1.1 2.5-2.5v-10C19 1.1 17.9 0 16.5 0zM18 12.5c0 .8-.7 1.5-1.5 1.5h-8c-.1 0-.2 0-.3.1L5 16.5v-2c0-.3-.2-.5-.5-.5h-2c-.8 0-1.5-.7-1.5-1.5v-10C1 1.7 1.7 1 2.5 1h14c.8 0 1.5.7 1.5 1.5v10z"></path><path d="M9.6 2.9h-.2C8.1 2.9 7 4 7 5.4v.4c0 .3.2.5.5.5s.5-.2.5-.5v-.4c0-.8.6-1.5 1.4-1.5h.3c.8 0 1.4.7 1.4 1.5 0 .5-.2.9-.5 1.1l-1 .8c-.4.2-.6.6-.6 1v1.1c0 .3.2.5.5.5s.5-.2.5-.5V8.3c0-.1 0-.2.1-.2l1-.8c.6-.5.9-1.2.9-1.9 0-1.4-1.1-2.5-2.4-2.5zm.4 7.9c-.2-.2-.7-.2-.9 0-.1.1-.2.1-.2.2s-.1.2-.1.2c0 .2.1.3.2.5s.3.2.5.2.3-.1.5-.2c.1-.1.2-.3.2-.5 0-.1 0-.2-.1-.2 0-.1-.1-.1-.1-.2z"></path></svg>