<svg xmlns="http://www.w3.org/2000/svg" display="block" viewBox="0 0 24 24" color="palette.slate12" enable-background="new 0 0 24 24" class="sc-jGVbCA gRyzDJ"><path d="M3.75 3.75043H6.75V6.75043H3.75V3.75043ZM10.5 15.7504V21.7504C10.4993 22.347 10.2621 22.9189 9.84027 23.3407C9.41846 23.7625 8.84654 23.9998 8.25 24.0004H2.25C1.65346 23.9998 1.08154 23.7625 0.659729 23.3407C0.237913 22.9189 0.000651147 22.347 0 21.7504L0 15.7504C0.000651147 15.1539 0.237913 14.582 0.659729 14.1602C1.08154 13.7383 1.65346 13.5011 2.25 13.5004H8.25C8.84654 13.5011 9.41846 13.7383 9.84027 14.1602C10.2621 14.582 10.4993 15.1539 10.5 15.7504ZM9 15.7504C8.99974 15.5516 8.92064 15.361 8.78005 15.2204C8.63945 15.0798 8.44883 15.0007 8.25 15.0004H2.25C2.05117 15.0007 1.86055 15.0798 1.71995 15.2204C1.57936 15.361 1.50026 15.5516 1.5 15.7504V21.7504C1.50026 21.9493 1.57936 22.1399 1.71995 22.2805C1.86055 22.4211 2.05117 22.5002 2.25 22.5004H8.25C8.44883 22.5002 8.63945 22.4211 8.78005 22.2805C8.92064 22.1399 8.99974 21.9493 9 21.7504V15.7504ZM3.75 20.2504H6.75V17.2504H3.75V20.2504ZM23.25 23.2504V20.2504H20.25V23.2504H23.25ZM10.5 2.25043V8.25043C10.4993 8.84696 10.2621 9.41888 9.84027 9.8407C9.41846 10.2625 8.84654 10.4998 8.25 10.5004H2.25C1.65346 10.4998 1.08154 10.2625 0.659729 9.8407C0.237913 9.41888 0.000651147 8.84696 0 8.25043L0 2.25043C0.000651147 1.65389 0.237913 1.08197 0.659729 0.660156C1.08154 0.23834 1.65346 0.00107839 2.25 0.000427246L8.25 0.000427246C8.84654 0.00107839 9.41846 0.23834 9.84027 0.660156C10.2621 1.08197 10.4993 1.65389 10.5 2.25043ZM9 2.25043C8.99974 2.05159 8.92064 1.86098 8.78005 1.72038C8.63945 1.57979 8.44883 1.50069 8.25 1.50043H2.25C2.05117 1.50069 1.86055 1.57979 1.71995 1.72038C1.57936 1.86098 1.50026 2.05159 1.5 2.25043V8.25043C1.50026 8.44926 1.57936 8.63988 1.71995 8.78047C1.86055 8.92107 2.05117 9.00017 2.25 9.00043H8.25C8.44883 9.00017 8.63945 8.92107 8.78005 8.78047C8.92064 8.63988 8.99974 8.44926 9 8.25043V2.25043ZM14.25 23.2504H17.25V20.2504H14.25V23.2504ZM20.25 17.2504H23.25V14.2504H20.25V17.2504ZM24 2.25043V8.25043C23.9993 8.84696 23.7621 9.41888 23.3403 9.8407C22.9185 10.2625 22.3465 10.4998 21.75 10.5004H15.75C15.1535 10.4998 14.5815 10.2625 14.1597 9.8407C13.7379 9.41888 13.5007 8.84696 13.5 8.25043V2.25043C13.5007 1.65389 13.7379 1.08197 14.1597 0.660156C14.5815 0.23834 15.1535 0.00107839 15.75 0.000427246L21.75 0.000427246C22.3465 0.00107839 22.9185 0.23834 23.3403 0.660156C23.7621 1.08197 23.9993 1.65389 24 2.25043ZM22.5 2.25043C22.4997 2.05159 22.4206 1.86098 22.28 1.72038C22.1394 1.57979 21.9488 1.50069 21.75 1.50043H15.75C15.5512 1.50069 15.3606 1.57979 15.22 1.72038C15.0794 1.86098 15.0003 2.05159 15 2.25043V8.25043C15.0003 8.44926 15.0794 8.63988 15.22 8.78047C15.3606 8.92107 15.5512 9.00017 15.75 9.00043H21.75C21.9488 9.00017 22.1394 8.92107 22.28 8.78047C22.4206 8.63988 22.4997 8.44926 22.5 8.25043V2.25043ZM17.25 6.75043H20.25V3.75043H17.25V6.75043ZM14.25 14.2504V17.2504H17.25V14.2504H14.25ZM17.25 20.2504H20.25V17.2504H17.25V20.2504Z" fill="currentColor"></path></svg>