<svg xmlns="http://www.w3.org/2000/svg" viewBox="0 0 15 14" color="palette.blueGrey12" enable-background="new 0 0 24 24"><path d="M0.799359 12.1659C0.407815 12.5667 0.389603 13.2771 0.808464 13.687C1.22733 14.0968 1.92846 14.0877 2.32911 13.6961L7.50114 8.52277L12.6641 13.6961C13.0738 14.0968 13.775 14.1059 14.1847 13.687C14.5945 13.268 14.6036 12.5758 14.1938 12.1659L9.02179 6.99264L14.1938 1.82846C14.6036 1.41861 14.6036 0.717297 14.1847 0.307441C13.7658 -0.102415 13.0738 -0.102415 12.6641 0.298333L7.50114 5.47162L2.32911 0.298333C1.92846 -0.0933066 1.21822 -0.111522 0.808464 0.307441C0.398709 0.726405 0.407815 1.42771 0.799359 1.81935L5.97138 6.99264L0.799359 12.1659Z" fill="currentColor"></path></svg>