<svg xmlns="http://www.w3.org/2000/svg" viewBox="0 0 20 18"><path d="M18.9 5.2l-.8-.2V.5c0-.2-.1-.4-.3-.4-.2-.1-.4-.1-.5 0C13.6 2.4 9.9 3.7 9.1 4c-.2-.2-.4-.3-.6-.3H2.9C1.3 3.7 0 5 0 6.6v3.1c0 1.5 1.2 2.8 2.8 2.8L2 17.4c0 .1 0 .3.1.4.1.1.3.2.4.2h2.8c.2 0 .4-.1.5-.4l1.5-5.1h1.2c.2 0 .5-.1.7-.2.8.2 4.6 1.5 8.2 3.9.1.1.2.1.3.1.1 0 .2 0 .2-.1.2-.1.3-.3.3-.4v-4.5l.8-.2c.7-.2 1.1-.7 1.1-1.4v-3c-.1-.8-.6-1.3-1.2-1.5zM4.9 17H3.1l.7-4.4h2.4L4.9 17zm3.5-5.4H2.9c-1 0-1.9-.8-1.9-1.9V6.6c0-1 .8-1.9 1.9-1.9h5.6c.1 0 .2.1.2.2v6.5c-.1.1-.2.2-.3.2zm8.7 3.3c-3.3-2-6.4-3.1-7.5-3.4V4.8c1-.3 4.2-1.5 7.5-3.4v13.5zM19 9.7c0 .2-.1.4-.4.4l-.5.1V6.1l.5.1c.2 0 .4.2.4.4v3.1z"></path></svg>