<svg class="logo" xmlns="http://www.w3.org/2000/svg" viewBox="0 0 30 25"><path fill="#39E09B" d="M11.2.688c-.5-.9-1.8-.9-2.3 0l-8.6 15.6c-.399.8.2 1.7 1.101 1.7h5.8v5.9c0 .6.5 1.1 1.1 1.1h3.4c.6 0 1.1-.5 1.1-1.1v-5.9h-1.6c-.7 0-1.2-.5-1.3-1.1 0-.2 0-.4.1-.601l4.8-8.7L11.2.688z"/><path fill="#28BF7B" d="M18.8.688c.5-.9 1.8-.9 2.3 0l8.601 15.6c.399.8-.2 1.7-1.101 1.7h-5.7v5.9c0 .6-.5 1.1-1.101 1.1h-3.6c-.601 0-1.101-.5-1.101-1.1v-5.9H18.7c.7 0 1.2-.5 1.3-1.1 0-.2 0-.4-.1-.601l-4.801-8.7L18.8.688z"/></svg>