<?xml version="1.0" encoding="UTF-8"?>
<svg xmlns="http://www.w3.org/2000/svg" xmlns:xlink="http://www.w3.org/1999/xlink" viewBox="0 0 48 48" width="48px" height="48px">
<g id="surface172095663">
<path style=" stroke:none;fill-rule:nonzero;fill:rgb(11.372549%,91.37255%,71.372551%);fill-opacity:1;" d="M 18.890625 32 L 21 32 L 21 40 C 21 41.101562 20.101562 42 19 42 L 15 42 C 13.898438 42 13 41.101562 13 40 L 13 32 L 4.890625 32 C 3.371094 32 2.410156 30.359375 3.140625 29.03125 L 15.25 7.160156 C 16.011719 5.789062 17.988281 5.789062 18.75 7.160156 L 23.601562 16.898438 L 17.140625 29.03125 C 16.410156 30.359375 17.371094 32 18.890625 32 Z M 18.890625 32 "/>
<path style=" stroke:none;fill-rule:nonzero;fill:rgb(14.901961%,65.098041%,60.392159%);fill-opacity:1;" d="M 43.109375 32 L 35 32 L 35 40 C 35 41.101562 34.101562 42 33 42 L 29 42 C 27.898438 42 27 41.101562 27 40 L 27 32 L 29.109375 32 C 30.628906 32 31.589844 30.359375 30.859375 29.03125 L 24.300781 16.898438 L 29.25 7.160156 C 30.011719 5.789062 31.988281 5.789062 32.75 7.160156 L 44.859375 29.03125 C 45.589844 30.359375 44.628906 32 43.109375 32 Z M 43.109375 32 "/>
</g>
</svg>
