<svg version="1.0" xmlns="http://www.w3.org/2000/svg"
 width="512.000000pt" height="512.000000pt" viewBox="0 0 512.000000 512.000000"
 preserveAspectRatio="xMidYMid meet">

<g transform="translate(0.000000,512.000000) scale(0.100000,-0.100000)"
fill="#000000" stroke="none">
<path d="M2321 5110 c-497 -48 -990 -251 -1376 -565 -114 -92 -294 -274 -384
-387 -229 -287 -417 -675 -495 -1023 -49 -218 -60 -325 -60 -575 0 -250 11
-357 60 -575 81 -362 282 -768 522 -1055 240 -287 515 -503 847 -666 375 -183
700 -258 1125 -258 425 0 750 75 1125 258 518 254 917 653 1171 1171 125 255
196 484 241 775 27 177 24 539 -5 725 -45 284 -117 512 -243 764 -129 261
-281 470 -491 678 -211 209 -404 346 -673 478 -252 124 -486 197 -765 240
-126 19 -468 27 -599 15z m474 -420 c728 -82 1369 -535 1691 -1195 286 -587
286 -1285 0 -1869 -111 -227 -228 -389 -415 -577 -332 -331 -705 -523 -1176
-606 -141 -24 -529 -24 -670 0 -477 84 -874 292 -1200 628 -395 407 -605 925
-605 1489 0 684 315 1308 870 1723 293 218 660 364 1020 406 107 12 379 13
485 1z"/>
<path d="M2309 4045 c-165 -26 -312 -71 -436 -134 -60 -30 -62 -32 -53 -58 5
-16 39 -122 75 -237 35 -115 67 -211 69 -214 3 -2 25 7 49 21 161 95 414 130
551 77 140 -54 197 -187 146 -339 -31 -93 -72 -156 -226 -351 -211 -267 -274
-426 -274 -693 l0 -137 298 2 297 3 6 120 c11 228 67 341 314 620 153 174 228
305 270 473 19 77 22 235 5 317 -16 79 -77 207 -129 272 -105 130 -285 224
-496 258 -111 18 -348 18 -466 0z"/>
<path d="M2416 1759 c-70 -11 -168 -63 -211 -110 -20 -23 -51 -71 -68 -107
-51 -109 -49 -270 5 -376 33 -65 112 -141 181 -172 56 -26 72 -29 172 -29 102
0 115 2 175 31 84 40 144 100 183 182 30 63 32 74 32 182 0 108 -2 119 -31
181 -18 37 -49 85 -69 108 -46 50 -140 98 -220 111 -67 11 -80 11 -149 -1z"/>
</g>
</svg>