<svg xmlns="http://www.w3.org/2000/svg" display="block" viewBox="0 0 18 24" color="palette.slate12" enable-background="new 0 0 24 24" class="sc-jGVbCA gRyzDJ"><path d="M18 11.249V20.249C17.9991 21.2432 17.6037 22.1965 16.9006 22.8996C16.1976 23.6027 15.2443 23.9981 14.25 23.999H3.75C2.75572 23.9981 1.80243 23.6027 1.09936 22.8996C0.3963 22.1965 0.000917444 21.2432 0 20.249V11.249C0.000917444 10.2547 0.3963 9.3014 1.09936 8.59833C1.80243 7.89527 2.75572 7.49989 3.75 7.49897H6C6.19891 7.49897 6.38968 7.57799 6.53033 7.71864C6.67098 7.85929 6.75 8.05006 6.75 8.24897C6.75 8.44788 6.67098 8.63865 6.53033 8.7793C6.38968 8.91995 6.19891 8.99897 6 8.99897H3.75C3.15346 8.99962 2.58154 9.23688 2.15973 9.6587C1.73791 10.0805 1.50065 10.6524 1.5 11.249V20.249C1.50065 20.8455 1.73791 21.4174 2.15973 21.8392C2.58154 22.2611 3.15346 22.4983 3.75 22.499H14.25C14.8465 22.4983 15.4185 22.2611 15.8403 21.8392C16.2621 21.4174 16.4993 20.8455 16.5 20.249V11.249C16.4993 10.6524 16.2621 10.0805 15.8403 9.6587C15.4185 9.23688 14.8465 8.99962 14.25 8.99897H12C11.8011 8.99897 11.6103 8.91995 11.4697 8.7793C11.329 8.63865 11.25 8.44788 11.25 8.24897C11.25 8.05006 11.329 7.85929 11.4697 7.71864C11.6103 7.57799 11.8011 7.49897 12 7.49897H14.25C15.2443 7.49989 16.1976 7.89527 16.9006 8.59833C17.6037 9.3014 17.9991 10.2547 18 11.249ZM5.03028 5.77925L8.25 2.55947V14.999C8.25 15.1979 8.32902 15.3886 8.46967 15.5293C8.61032 15.67 8.80109 15.749 9 15.749C9.19891 15.749 9.38968 15.67 9.53033 15.5293C9.67098 15.3886 9.75 15.1979 9.75 14.999V2.55947L12.9697 5.7792C13.0389 5.85084 13.1217 5.90797 13.2132 5.94728C13.3047 5.98659 13.4031 6.00728 13.5027 6.00814C13.6023 6.00901 13.701 5.99003 13.7932 5.95232C13.8854 5.91461 13.9691 5.85892 14.0395 5.7885C14.1099 5.71808 14.1656 5.63434 14.2033 5.54217C14.241 5.45 14.26 5.35124 14.2592 5.25165C14.2583 5.15207 14.2376 5.05365 14.1983 4.96215C14.159 4.87065 14.1019 4.78789 14.0302 4.7187L9.53119 0.219604C9.39018 0.0789733 9.19915 0 9 0C8.80085 0 8.60982 0.0789733 8.46881 0.219604L3.96972 4.71869C3.8331 4.86014 3.75751 5.04959 3.75921 5.24624C3.76092 5.44289 3.8398 5.631 3.97886 5.77005C4.11791 5.90911 4.30602 5.98799 4.50267 5.9897C4.69932 5.9914 4.88877 5.91581 5.03022 5.77919L5.03028 5.77925Z" fill="currentColor"></path></svg>